<svg width="62" height="62" viewBox="0 0 62 62" fill="none" xmlns="http://www.w3.org/2000/svg">
<rect width="62" height="62" rx="31" fill="#7C38D6"/>
<path d="M22.8072 49L22.004 49.5957L22.3427 50.0523L22.9083 49.9949L22.8072 49ZM11 33.0787L10.0894 32.6654L9.84606 33.2015L10.1968 33.6744L11 33.0787ZM19.1928 15.0315L19.0917 14.0366L18.5198 14.0947L18.2822 14.6181L19.1928 15.0315ZM39.1928 13L39.9964 12.4049L39.6578 11.9476L39.0917 12.0051L39.1928 13ZM51 28.9449L51.9104 29.3587L52.1539 28.8228L51.8036 28.3498L51 28.9449ZM42.8072 46.9685L42.9083 47.9634L43.4799 47.9053L43.7176 47.3823L42.8072 46.9685ZM18.8485 30.0254L35.8124 18.2144L34.6696 16.573L17.7057 28.384L18.8485 30.0254ZM34.2523 17.5439L37.3125 37.6935L39.2899 37.3932L36.2296 17.2435L34.2523 17.5439ZM38.6856 36.6202L18.6615 28.2816L17.8927 30.1279L37.9168 38.4665L38.6856 36.6202ZM17.3023 29.4278L21.8324 49.2231L23.782 48.7769L19.2519 28.9816L17.3023 29.4278ZM23.4018 49.8041L38.8958 38.3474L37.7067 36.7392L22.2127 48.1959L23.4018 49.8041ZM11.4699 33.9615L18.747 30.0874L17.8072 28.322L10.5301 32.196L11.4699 33.9615ZM23.6105 48.4043L11.8032 32.4831L10.1968 33.6744L22.004 49.5957L23.6105 48.4043ZM11.9106 33.4921L20.1033 15.4449L18.2822 14.6181L10.0894 32.6654L11.9106 33.4921ZM18.1949 14.967L17.2792 29.1403L19.275 29.2692L20.1907 15.096L18.1949 14.967ZM35.3866 16.4044L19.3384 14.0422L19.0471 16.0208L35.0953 18.383L35.3866 16.4044ZM35.9845 18.0624L39.9363 13.6687L38.4493 12.3313L34.4975 16.725L35.9845 18.0624ZM39.0917 12.0051L19.0917 14.0366L19.2938 16.0264L39.2938 13.9949L39.0917 12.0051ZM34.6498 18.2002L50.4088 29.7514L51.5912 28.1383L35.8321 16.5872L34.6498 18.2002ZM51.8036 28.3498L39.9964 12.4049L38.3891 13.5951L50.1963 29.54L51.8036 28.3498ZM38.8619 38.3713L51.5607 29.7729L50.4393 28.1168L37.7405 36.7153L38.8619 38.3713ZM37.399 37.9746L41.905 47.3998L43.7094 46.5372L39.2034 37.112L37.399 37.9746ZM42.7062 45.9736L22.7062 48.0051L22.9083 49.9949L42.9083 47.9634L42.7062 45.9736ZM43.7176 47.3823L51.9104 29.3587L50.0896 28.5311L41.8969 46.5547L43.7176 47.3823Z" fill="white"/>
</svg>
