<svg data-name="Layer 1" xmlns="http://www.w3.org/2000/svg" viewBox="0 0 436 121.06"><path class="cls-2" d="M142.57 36.95l-7.73 30.93h16.17l-8.44-30.93z"/><g class="cls-3"><path class="cls-2" d="M47.1 24.6l14.1 55.3L75 24.6h15.2L67.9 97.8H54.5L32.7 24.6h14.4zm85.3 0h19.7l20.8 73.3h-14.8l-4.9-18.3h-21.9s-3.8 14.7-4.6 18c-4.4.3-15.1 0-15.1 0l20.8-73zm76 0h14.4v60.9h30.7v12.3h-45.1V24.6zm77.5 0L300 79.2l13.7-54.6h14.8l-22.2 73.3h-13l-22.2-73.3h14.8zm103.6 0v9.5h-19.7v10.6h18v9.5h-18v10.9h19.7v9.5h-30.7v-50h30.7zM0 123.2h436V-1.1H0"/></g></svg>